<?xml version="1.0" encoding="UTF-8" standalone="no"?>
<!DOCTYPE svg PUBLIC "-//W3C//DTD SVG 1.1//EN"
 "http://www.w3.org/Graphics/SVG/1.1/DTD/svg11.dtd">
<!-- Generated by graphviz version 2.40.1 (20161225.0304)
 -->
<!-- Title: dependencies Pages: 1 -->
<svg width="504pt" height="284pt"
 viewBox="0.00 0.00 504.00 284.00" xmlns="http://www.w3.org/2000/svg" xmlns:xlink="http://www.w3.org/1999/xlink">
<g id="graph0" class="graph" transform="scale(1 1) rotate(0) translate(4 280)">
<title>dependencies</title>
<polygon fill="#ffffff" stroke="transparent" points="-4,4 -4,-280 500,-280 500,4 -4,4"/>
<text text-anchor="start" x="227.0091" y="-42.4" font-family="sans-serif" font-weight="bold" font-size="14.00" fill="#000000">Legend</text>
<polygon fill="#ffffb3" stroke="transparent" points="14,-10 14,-30 34,-30 34,-10 14,-10"/>
<text text-anchor="start" x="37.629" y="-15.4" font-family="sans-serif" font-size="14.00" fill="#000000"> &#160;Declarations</text>
<polygon fill="#8dd3c7" stroke="transparent" points="127,-10 127,-30 147,-30 147,-10 127,-10"/>
<text text-anchor="start" x="150.7251" y="-15.4" font-family="sans-serif" font-size="14.00" fill="#000000"> &#160;Module</text>
<polygon fill="#80b1d3" stroke="transparent" points="213,-10 213,-30 233,-30 233,-10 213,-10"/>
<text text-anchor="start" x="236.7812" y="-15.4" font-family="sans-serif" font-size="14.00" fill="#000000"> &#160;Bootstrap</text>
<polygon fill="#fdb462" stroke="transparent" points="310,-10 310,-30 330,-30 330,-10 310,-10"/>
<text text-anchor="start" x="333.6732" y="-15.4" font-family="sans-serif" font-size="14.00" fill="#000000"> &#160;Providers</text>
<polygon fill="#fb8072" stroke="transparent" points="406,-10 406,-30 426,-30 426,-10 406,-10"/>
<text text-anchor="start" x="429.7258" y="-15.4" font-family="sans-serif" font-size="14.00" fill="#000000"> &#160;Exports</text>
<g id="clust1" class="cluster">
<title>cluster_PagenotfoundModule</title>
<polygon fill="none" stroke="#000000" stroke-dasharray="1,5" points="49,-70 49,-268 447,-268 447,-70 49,-70"/>
</g>
<g id="clust2" class="cluster">
<title>cluster_PagenotfoundModule_declarations</title>
<polygon fill="none" stroke="#000000" points="263,-78 263,-130 439,-130 439,-78 263,-78"/>
</g>
<g id="clust4" class="cluster">
<title>cluster_PagenotfoundModule_imports</title>
<polygon fill="none" stroke="#000000" points="57,-78 57,-130 255,-130 255,-78 57,-78"/>
</g>
<g id="clust5" class="cluster">
<title>cluster_PagenotfoundModule_exports</title>
<polygon fill="none" stroke="#000000" points="164,-208 164,-260 342,-260 342,-208 164,-208"/>
</g>
<!-- PagenotfoundComponent -->
<g id="node1" class="node">
<title>PagenotfoundComponent</title>
<polygon fill="#ffffb3" stroke="#000000" points="430.5954,-122 271.4046,-122 271.4046,-86 430.5954,-86 430.5954,-122"/>
<text text-anchor="middle" x="351" y="-99.8" font-family="Times,serif" font-size="14.00" fill="#000000">PagenotfoundComponent</text>
</g>
<!-- PagenotfoundModule -->
<g id="node2" class="node">
<title>PagenotfoundModule</title>
<polygon fill="#8dd3c7" stroke="#000000" points="321.8132,-187 318.8132,-191 297.8132,-191 294.8132,-187 184.1868,-187 184.1868,-151 321.8132,-151 321.8132,-187"/>
<text text-anchor="middle" x="253" y="-164.8" font-family="Times,serif" font-size="14.00" fill="#000000">PagenotfoundModule</text>
</g>
<!-- PagenotfoundComponent&#45;&gt;PagenotfoundModule -->
<g id="edge1" class="edge">
<title>PagenotfoundComponent&#45;&gt;PagenotfoundModule</title>
<path fill="none" stroke="#000000" d="M296.5544,-122.1061C296.5544,-122.1061 296.5544,-140.991 296.5544,-140.991"/>
<polygon fill="#000000" stroke="#000000" points="293.0544,-140.9909 296.5544,-150.991 300.0544,-140.991 293.0544,-140.9909"/>
</g>
<!-- PagenotfoundComponent  -->
<g id="node4" class="node">
<title>PagenotfoundComponent </title>
<polygon fill="#fb8072" stroke="#000000" points="334.0959,-252 171.9041,-252 171.9041,-216 334.0959,-216 334.0959,-252"/>
<text text-anchor="middle" x="253" y="-229.8" font-family="Times,serif" font-size="14.00" fill="#000000">PagenotfoundComponent </text>
</g>
<!-- PagenotfoundModule&#45;&gt;PagenotfoundComponent  -->
<g id="edge3" class="edge">
<title>PagenotfoundModule&#45;&gt;PagenotfoundComponent </title>
<path fill="none" stroke="#000000" stroke-dasharray="5,2" d="M253,-187.1061C253,-187.1061 253,-205.991 253,-205.991"/>
<polygon fill="#000000" stroke="#000000" points="249.5001,-205.9909 253,-215.991 256.5001,-205.991 249.5001,-205.9909"/>
</g>
<!-- PagenotfoundRoutingModule -->
<g id="node3" class="node">
<title>PagenotfoundRoutingModule</title>
<polygon fill="#8dd3c7" stroke="#000000" points="247.4311,-122 244.4311,-126 223.4311,-126 220.4311,-122 64.5689,-122 64.5689,-86 247.4311,-86 247.4311,-122"/>
<text text-anchor="middle" x="156" y="-99.8" font-family="Times,serif" font-size="14.00" fill="#000000">PagenotfoundRoutingModule</text>
</g>
<!-- PagenotfoundRoutingModule&#45;&gt;PagenotfoundModule -->
<g id="edge2" class="edge">
<title>PagenotfoundRoutingModule&#45;&gt;PagenotfoundModule</title>
<path fill="none" stroke="#000000" d="M215.7795,-122.1061C215.7795,-122.1061 215.7795,-140.991 215.7795,-140.991"/>
<polygon fill="#000000" stroke="#000000" points="212.2795,-140.9909 215.7795,-150.991 219.2795,-140.991 212.2795,-140.9909"/>
</g>
</g>
</svg>
