<?xml version="1.0" encoding="UTF-8" standalone="no"?>
<!DOCTYPE svg PUBLIC "-//W3C//DTD SVG 1.1//EN"
 "http://www.w3.org/Graphics/SVG/1.1/DTD/svg11.dtd">
<!-- Generated by graphviz version 2.40.1 (20161225.0304)
 -->
<!-- Title: dependencies Pages: 1 -->
<svg width="603pt" height="284pt"
 viewBox="0.00 0.00 603.00 284.00" xmlns="http://www.w3.org/2000/svg" xmlns:xlink="http://www.w3.org/1999/xlink">
<g id="graph0" class="graph" transform="scale(1 1) rotate(0) translate(4 280)">
<title>dependencies</title>
<polygon fill="#ffffff" stroke="transparent" points="-4,4 -4,-280 599,-280 599,4 -4,4"/>
<text text-anchor="start" x="276.5091" y="-42.4" font-family="sans-serif" font-weight="bold" font-size="14.00" fill="#000000">Legend</text>
<polygon fill="#ffffb3" stroke="transparent" points="63.5,-10 63.5,-30 83.5,-30 83.5,-10 63.5,-10"/>
<text text-anchor="start" x="87.129" y="-15.4" font-family="sans-serif" font-size="14.00" fill="#000000"> &#160;Declarations</text>
<polygon fill="#8dd3c7" stroke="transparent" points="176.5,-10 176.5,-30 196.5,-30 196.5,-10 176.5,-10"/>
<text text-anchor="start" x="200.2251" y="-15.4" font-family="sans-serif" font-size="14.00" fill="#000000"> &#160;Module</text>
<polygon fill="#80b1d3" stroke="transparent" points="262.5,-10 262.5,-30 282.5,-30 282.5,-10 262.5,-10"/>
<text text-anchor="start" x="286.2812" y="-15.4" font-family="sans-serif" font-size="14.00" fill="#000000"> &#160;Bootstrap</text>
<polygon fill="#fdb462" stroke="transparent" points="359.5,-10 359.5,-30 379.5,-30 379.5,-10 359.5,-10"/>
<text text-anchor="start" x="383.1732" y="-15.4" font-family="sans-serif" font-size="14.00" fill="#000000"> &#160;Providers</text>
<polygon fill="#fb8072" stroke="transparent" points="455.5,-10 455.5,-30 475.5,-30 475.5,-10 455.5,-10"/>
<text text-anchor="start" x="479.2258" y="-15.4" font-family="sans-serif" font-size="14.00" fill="#000000"> &#160;Exports</text>
<g id="clust1" class="cluster">
<title>cluster_SharedModule</title>
<polygon fill="none" stroke="#000000" stroke-dasharray="1,5" points="8,-70 8,-268 587,-268 587,-70 8,-70"/>
</g>
<g id="clust2" class="cluster">
<title>cluster_SharedModule_declarations</title>
<polygon fill="none" stroke="#000000" points="25,-78 25,-130 570,-130 570,-78 25,-78"/>
</g>
<g id="clust9" class="cluster">
<title>cluster_SharedModule_exports</title>
<polygon fill="none" stroke="#000000" points="16,-208 16,-260 579,-260 579,-208 16,-208"/>
</g>
<!-- FilterPipe -->
<g id="node1" class="node">
<title>FilterPipe</title>
<polygon fill="#ffffb3" stroke="#000000" points="561.7177,-122 490.2823,-122 490.2823,-86 561.7177,-86 561.7177,-122"/>
<text text-anchor="middle" x="526" y="-99.8" font-family="Times,serif" font-size="14.00" fill="#000000">FilterPipe</text>
</g>
<!-- SharedModule -->
<g id="node6" class="node">
<title>SharedModule</title>
<polygon fill="#8dd3c7" stroke="#000000" points="340.4231,-187 337.4231,-191 316.4231,-191 313.4231,-187 241.5769,-187 241.5769,-151 340.4231,-151 340.4231,-187"/>
<text text-anchor="middle" x="291" y="-164.8" font-family="Times,serif" font-size="14.00" fill="#000000">SharedModule</text>
</g>
<!-- FilterPipe&#45;&gt;SharedModule -->
<g id="edge1" class="edge">
<title>FilterPipe&#45;&gt;SharedModule</title>
<path fill="none" stroke="#000000" d="M539.9529,-122.2667C539.9529,-140.5552 539.9529,-166 539.9529,-166 539.9529,-166 350.4827,-166 350.4827,-166"/>
<polygon fill="#000000" stroke="#000000" points="350.4828,-162.5001 340.4827,-166 350.4827,-169.5001 350.4828,-162.5001"/>
</g>
<!-- FormComponent -->
<g id="node2" class="node">
<title>FormComponent</title>
<polygon fill="#ffffb3" stroke="#000000" points="472.6667,-122 361.3333,-122 361.3333,-86 472.6667,-86 472.6667,-122"/>
<text text-anchor="middle" x="417" y="-99.8" font-family="Times,serif" font-size="14.00" fill="#000000">FormComponent</text>
</g>
<!-- FormComponent&#45;&gt;SharedModule -->
<g id="edge2" class="edge">
<title>FormComponent&#45;&gt;SharedModule</title>
<path fill="none" stroke="#000000" d="M436.361,-122.0091C436.361,-138.0494 436.361,-159 436.361,-159 436.361,-159 350.2126,-159 350.2126,-159"/>
<polygon fill="#000000" stroke="#000000" points="350.2126,-155.5001 340.2126,-159 350.2126,-162.5001 350.2126,-155.5001"/>
</g>
<!-- NavComponent -->
<g id="node3" class="node">
<title>NavComponent</title>
<polygon fill="#ffffb3" stroke="#000000" points="343.1542,-122 238.8458,-122 238.8458,-86 343.1542,-86 343.1542,-122"/>
<text text-anchor="middle" x="291" y="-99.8" font-family="Times,serif" font-size="14.00" fill="#000000">NavComponent</text>
</g>
<!-- NavComponent&#45;&gt;SharedModule -->
<g id="edge3" class="edge">
<title>NavComponent&#45;&gt;SharedModule</title>
<path fill="none" stroke="#000000" d="M291,-122.1061C291,-122.1061 291,-140.991 291,-140.991"/>
<polygon fill="#000000" stroke="#000000" points="287.5001,-140.9909 291,-150.991 294.5001,-140.991 287.5001,-140.9909"/>
</g>
<!-- OrderPipe -->
<g id="node4" class="node">
<title>OrderPipe</title>
<polygon fill="#ffffb3" stroke="#000000" points="220.5317,-122 147.4683,-122 147.4683,-86 220.5317,-86 220.5317,-122"/>
<text text-anchor="middle" x="184" y="-99.8" font-family="Times,serif" font-size="14.00" fill="#000000">OrderPipe</text>
</g>
<!-- OrderPipe&#45;&gt;SharedModule -->
<g id="edge4" class="edge">
<title>OrderPipe&#45;&gt;SharedModule</title>
<path fill="none" stroke="#000000" d="M194.755,-122.0091C194.755,-138.0494 194.755,-159 194.755,-159 194.755,-159 231.7497,-159 231.7497,-159"/>
<polygon fill="#000000" stroke="#000000" points="231.7498,-162.5001 241.7497,-159 231.7497,-155.5001 231.7498,-162.5001"/>
</g>
<!-- StateDirective -->
<g id="node5" class="node">
<title>StateDirective</title>
<polygon fill="#ffffb3" stroke="#000000" points="129.0758,-122 32.9242,-122 32.9242,-86 129.0758,-86 129.0758,-122"/>
<text text-anchor="middle" x="81" y="-99.8" font-family="Times,serif" font-size="14.00" fill="#000000">StateDirective</text>
</g>
<!-- StateDirective&#45;&gt;SharedModule -->
<g id="edge5" class="edge">
<title>StateDirective&#45;&gt;SharedModule</title>
<path fill="none" stroke="#000000" d="M93.5126,-122.2667C93.5126,-140.5552 93.5126,-166 93.5126,-166 93.5126,-166 231.675,-166 231.675,-166"/>
<polygon fill="#000000" stroke="#000000" points="231.6751,-169.5001 241.675,-166 231.675,-162.5001 231.6751,-169.5001"/>
</g>
<!-- FilterPipe  -->
<g id="node7" class="node">
<title>FilterPipe </title>
<polygon fill="#fb8072" stroke="#000000" points="571.2179,-252 496.7821,-252 496.7821,-216 571.2179,-216 571.2179,-252"/>
<text text-anchor="middle" x="534" y="-229.8" font-family="Times,serif" font-size="14.00" fill="#000000">FilterPipe </text>
</g>
<!-- SharedModule&#45;&gt;FilterPipe  -->
<g id="edge6" class="edge">
<title>SharedModule&#45;&gt;FilterPipe </title>
<path fill="none" stroke="#000000" stroke-dasharray="5,2" d="M340.3201,-173C407.17,-173 518.2971,-173 518.2971,-173 518.2971,-173 518.2971,-205.698 518.2971,-205.698"/>
<polygon fill="#000000" stroke="#000000" points="514.7972,-205.698 518.2971,-215.698 521.7972,-205.698 514.7972,-205.698"/>
</g>
<!-- FormComponent  -->
<g id="node8" class="node">
<title>FormComponent </title>
<polygon fill="#fb8072" stroke="#000000" points="478.6663,-252 363.3337,-252 363.3337,-216 478.6663,-216 478.6663,-252"/>
<text text-anchor="middle" x="421" y="-229.8" font-family="Times,serif" font-size="14.00" fill="#000000">FormComponent </text>
</g>
<!-- SharedModule&#45;&gt;FormComponent  -->
<g id="edge7" class="edge">
<title>SharedModule&#45;&gt;FormComponent </title>
<path fill="none" stroke="#000000" stroke-dasharray="5,2" d="M340.347,-180C369.1576,-180 399.889,-180 399.889,-180 399.889,-180 399.889,-205.7181 399.889,-205.7181"/>
<polygon fill="#000000" stroke="#000000" points="396.3891,-205.718 399.889,-215.7181 403.3891,-205.7181 396.3891,-205.718"/>
</g>
<!-- NavComponent  -->
<g id="node9" class="node">
<title>NavComponent </title>
<polygon fill="#fb8072" stroke="#000000" points="345.1537,-252 236.8463,-252 236.8463,-216 345.1537,-216 345.1537,-252"/>
<text text-anchor="middle" x="291" y="-229.8" font-family="Times,serif" font-size="14.00" fill="#000000">NavComponent </text>
</g>
<!-- SharedModule&#45;&gt;NavComponent  -->
<g id="edge8" class="edge">
<title>SharedModule&#45;&gt;NavComponent </title>
<path fill="none" stroke="#000000" stroke-dasharray="5,2" d="M291,-187.1061C291,-187.1061 291,-205.991 291,-205.991"/>
<polygon fill="#000000" stroke="#000000" points="287.5001,-205.9909 291,-215.991 294.5001,-205.991 287.5001,-205.9909"/>
</g>
<!-- OrderPipe  -->
<g id="node10" class="node">
<title>OrderPipe </title>
<polygon fill="#fb8072" stroke="#000000" points="218.5302,-252 141.4698,-252 141.4698,-216 218.5302,-216 218.5302,-252"/>
<text text-anchor="middle" x="180" y="-229.8" font-family="Times,serif" font-size="14.00" fill="#000000">OrderPipe </text>
</g>
<!-- SharedModule&#45;&gt;OrderPipe  -->
<g id="edge9" class="edge">
<title>SharedModule&#45;&gt;OrderPipe </title>
<path fill="none" stroke="#000000" stroke-dasharray="5,2" d="M241.4965,-180C208.4398,-180 170.995,-180 170.995,-180 170.995,-180 170.995,-205.7181 170.995,-205.7181"/>
<polygon fill="#000000" stroke="#000000" points="167.4951,-205.718 170.995,-215.7181 174.4951,-205.7181 167.4951,-205.718"/>
</g>
<!-- StateDirective  -->
<g id="node11" class="node">
<title>StateDirective </title>
<polygon fill="#fb8072" stroke="#000000" points="123.5767,-252 24.4233,-252 24.4233,-216 123.5767,-216 123.5767,-252"/>
<text text-anchor="middle" x="74" y="-229.8" font-family="Times,serif" font-size="14.00" fill="#000000">StateDirective </text>
</g>
<!-- SharedModule&#45;&gt;StateDirective  -->
<g id="edge10" class="edge">
<title>SharedModule&#45;&gt;StateDirective </title>
<path fill="none" stroke="#000000" stroke-dasharray="5,2" d="M241.5789,-173C174.5921,-173 63.2374,-173 63.2374,-173 63.2374,-173 63.2374,-205.698 63.2374,-205.698"/>
<polygon fill="#000000" stroke="#000000" points="59.7375,-205.698 63.2374,-215.698 66.7375,-205.698 59.7375,-205.698"/>
</g>
</g>
</svg>
