<?xml version="1.0" encoding="UTF-8" standalone="no"?>
<!DOCTYPE svg PUBLIC "-//W3C//DTD SVG 1.1//EN"
 "http://www.w3.org/Graphics/SVG/1.1/DTD/svg11.dtd">
<!-- Generated by graphviz version 2.40.1 (20161225.0304)
 -->
<!-- Title: dependencies Pages: 1 -->
<svg width="864pt" height="284pt"
 viewBox="0.00 0.00 864.00 284.00" xmlns="http://www.w3.org/2000/svg" xmlns:xlink="http://www.w3.org/1999/xlink">
<g id="graph0" class="graph" transform="scale(1 1) rotate(0) translate(4 280)">
<title>dependencies</title>
<polygon fill="#ffffff" stroke="transparent" points="-4,4 -4,-280 860,-280 860,4 -4,4"/>
<text text-anchor="start" x="407.0091" y="-42.4" font-family="sans-serif" font-weight="bold" font-size="14.00" fill="#000000">Legend</text>
<polygon fill="#ffffb3" stroke="transparent" points="194,-10 194,-30 214,-30 214,-10 194,-10"/>
<text text-anchor="start" x="217.629" y="-15.4" font-family="sans-serif" font-size="14.00" fill="#000000"> &#160;Declarations</text>
<polygon fill="#8dd3c7" stroke="transparent" points="307,-10 307,-30 327,-30 327,-10 307,-10"/>
<text text-anchor="start" x="330.7251" y="-15.4" font-family="sans-serif" font-size="14.00" fill="#000000"> &#160;Module</text>
<polygon fill="#80b1d3" stroke="transparent" points="393,-10 393,-30 413,-30 413,-10 393,-10"/>
<text text-anchor="start" x="416.7812" y="-15.4" font-family="sans-serif" font-size="14.00" fill="#000000"> &#160;Bootstrap</text>
<polygon fill="#fdb462" stroke="transparent" points="490,-10 490,-30 510,-30 510,-10 490,-10"/>
<text text-anchor="start" x="513.6732" y="-15.4" font-family="sans-serif" font-size="14.00" fill="#000000"> &#160;Providers</text>
<polygon fill="#fb8072" stroke="transparent" points="586,-10 586,-30 606,-30 606,-10 586,-10"/>
<text text-anchor="start" x="609.7258" y="-15.4" font-family="sans-serif" font-size="14.00" fill="#000000"> &#160;Exports</text>
<g id="clust1" class="cluster">
<title>cluster_ItemsModule</title>
<polygon fill="none" stroke="#000000" stroke-dasharray="1,5" points="8,-70 8,-268 848,-268 848,-70 8,-70"/>
</g>
<g id="clust2" class="cluster">
<title>cluster_ItemsModule_declarations</title>
<polygon fill="none" stroke="#000000" points="292,-78 292,-130 840,-130 840,-78 292,-78"/>
</g>
<g id="clust7" class="cluster">
<title>cluster_ItemsModule_imports</title>
<polygon fill="none" stroke="#000000" points="16,-78 16,-130 284,-130 284,-78 16,-78"/>
</g>
<g id="clust8" class="cluster">
<title>cluster_ItemsModule_exports</title>
<polygon fill="none" stroke="#000000" points="282,-208 282,-260 588,-260 588,-208 282,-208"/>
</g>
<!-- AddComponent -->
<g id="node1" class="node">
<title>AddComponent</title>
<polygon fill="#ffffb3" stroke="#000000" points="831.9399,-122 726.0601,-122 726.0601,-86 831.9399,-86 831.9399,-122"/>
<text text-anchor="middle" x="779" y="-99.8" font-family="Times,serif" font-size="14.00" fill="#000000">AddComponent</text>
</g>
<!-- ItemsModule -->
<g id="node5" class="node">
<title>ItemsModule</title>
<polygon fill="#8dd3c7" stroke="#000000" points="481.1515,-187 478.1515,-191 457.1515,-191 454.1515,-187 390.8485,-187 390.8485,-151 481.1515,-151 481.1515,-187"/>
<text text-anchor="middle" x="436" y="-164.8" font-family="Times,serif" font-size="14.00" fill="#000000">ItemsModule</text>
</g>
<!-- AddComponent&#45;&gt;ItemsModule -->
<g id="edge1" class="edge">
<title>AddComponent&#45;&gt;ItemsModule</title>
<path fill="none" stroke="#000000" d="M779,-122.2843C779,-143.3211 779,-175 779,-175 779,-175 491.194,-175 491.194,-175"/>
<polygon fill="#000000" stroke="#000000" points="491.194,-171.5001 481.194,-175 491.1939,-178.5001 491.194,-171.5001"/>
</g>
<!-- AddItemComponent -->
<g id="node2" class="node">
<title>AddItemComponent</title>
<polygon fill="#ffffb3" stroke="#000000" points="708.5954,-122 577.4046,-122 577.4046,-86 708.5954,-86 708.5954,-122"/>
<text text-anchor="middle" x="643" y="-99.8" font-family="Times,serif" font-size="14.00" fill="#000000">AddItemComponent</text>
</g>
<!-- AddItemComponent&#45;&gt;ItemsModule -->
<g id="edge2" class="edge">
<title>AddItemComponent&#45;&gt;ItemsModule</title>
<path fill="none" stroke="#000000" d="M644.4227,-122.0225C644.4227,-139.3734 644.4227,-163 644.4227,-163 644.4227,-163 491.2246,-163 491.2246,-163"/>
<polygon fill="#000000" stroke="#000000" points="491.2247,-159.5001 481.2246,-163 491.2246,-166.5001 491.2247,-159.5001"/>
</g>
<!-- ItemComponent -->
<g id="node3" class="node">
<title>ItemComponent</title>
<polygon fill="#ffffb3" stroke="#000000" points="559.4888,-122 452.5112,-122 452.5112,-86 559.4888,-86 559.4888,-122"/>
<text text-anchor="middle" x="506" y="-99.8" font-family="Times,serif" font-size="14.00" fill="#000000">ItemComponent</text>
</g>
<!-- ItemComponent&#45;&gt;ItemsModule -->
<g id="edge3" class="edge">
<title>ItemComponent&#45;&gt;ItemsModule</title>
<path fill="none" stroke="#000000" d="M466.9155,-122.1061C466.9155,-122.1061 466.9155,-140.991 466.9155,-140.991"/>
<polygon fill="#000000" stroke="#000000" points="463.4156,-140.9909 466.9155,-150.991 470.4156,-140.991 463.4156,-140.9909"/>
</g>
<!-- ListItemsComponent -->
<g id="node4" class="node">
<title>ListItemsComponent</title>
<polygon fill="#ffffb3" stroke="#000000" points="434.212,-122 299.788,-122 299.788,-86 434.212,-86 434.212,-122"/>
<text text-anchor="middle" x="367" y="-99.8" font-family="Times,serif" font-size="14.00" fill="#000000">ListItemsComponent</text>
</g>
<!-- ListItemsComponent&#45;&gt;ItemsModule -->
<g id="edge4" class="edge">
<title>ListItemsComponent&#45;&gt;ItemsModule</title>
<path fill="none" stroke="#000000" d="M412.3903,-122.1061C412.3903,-122.1061 412.3903,-140.991 412.3903,-140.991"/>
<polygon fill="#000000" stroke="#000000" points="408.8903,-140.9909 412.3903,-150.991 415.8903,-140.991 408.8903,-140.9909"/>
</g>
<!-- AddItemComponent  -->
<g id="node8" class="node">
<title>AddItemComponent </title>
<polygon fill="#fb8072" stroke="#000000" points="580.096,-252 445.904,-252 445.904,-216 580.096,-216 580.096,-252"/>
<text text-anchor="middle" x="513" y="-229.8" font-family="Times,serif" font-size="14.00" fill="#000000">AddItemComponent </text>
</g>
<!-- ItemsModule&#45;&gt;AddItemComponent  -->
<g id="edge7" class="edge">
<title>ItemsModule&#45;&gt;AddItemComponent </title>
<path fill="none" stroke="#000000" stroke-dasharray="5,2" d="M463.5139,-187.1061C463.5139,-187.1061 463.5139,-205.991 463.5139,-205.991"/>
<polygon fill="#000000" stroke="#000000" points="460.0139,-205.9909 463.5139,-215.991 467.0139,-205.991 460.0139,-205.9909"/>
</g>
<!-- ListItemsComponent  -->
<g id="node9" class="node">
<title>ListItemsComponent </title>
<polygon fill="#fb8072" stroke="#000000" points="427.7121,-252 290.2879,-252 290.2879,-216 427.7121,-216 427.7121,-252"/>
<text text-anchor="middle" x="359" y="-229.8" font-family="Times,serif" font-size="14.00" fill="#000000">ListItemsComponent </text>
</g>
<!-- ItemsModule&#45;&gt;ListItemsComponent  -->
<g id="edge8" class="edge">
<title>ItemsModule&#45;&gt;ListItemsComponent </title>
<path fill="none" stroke="#000000" stroke-dasharray="5,2" d="M409.2653,-187.1061C409.2653,-187.1061 409.2653,-205.991 409.2653,-205.991"/>
<polygon fill="#000000" stroke="#000000" points="405.7653,-205.9909 409.2653,-215.991 412.7653,-205.991 405.7653,-205.9909"/>
</g>
<!-- ItemsRoutingModule -->
<g id="node6" class="node">
<title>ItemsRoutingModule</title>
<polygon fill="#8dd3c7" stroke="#000000" points="275.7688,-122 272.7688,-126 251.7688,-126 248.7688,-122 140.2312,-122 140.2312,-86 275.7688,-86 275.7688,-122"/>
<text text-anchor="middle" x="208" y="-99.8" font-family="Times,serif" font-size="14.00" fill="#000000">ItemsRoutingModule</text>
</g>
<!-- ItemsRoutingModule&#45;&gt;ItemsModule -->
<g id="edge5" class="edge">
<title>ItemsRoutingModule&#45;&gt;ItemsModule</title>
<path fill="none" stroke="#000000" d="M208,-122.0225C208,-139.3734 208,-163 208,-163 208,-163 380.6819,-163 380.6819,-163"/>
<polygon fill="#000000" stroke="#000000" points="380.682,-166.5001 390.6819,-163 380.6819,-159.5001 380.682,-166.5001"/>
</g>
<!-- SharedModule -->
<g id="node7" class="node">
<title>SharedModule</title>
<polygon fill="#8dd3c7" stroke="#000000" points="122.4231,-122 119.4231,-126 98.4231,-126 95.4231,-122 23.5769,-122 23.5769,-86 122.4231,-86 122.4231,-122"/>
<text text-anchor="middle" x="73" y="-99.8" font-family="Times,serif" font-size="14.00" fill="#000000">SharedModule</text>
</g>
<!-- SharedModule&#45;&gt;ItemsModule -->
<g id="edge6" class="edge">
<title>SharedModule&#45;&gt;ItemsModule</title>
<path fill="none" stroke="#000000" d="M73,-122.2843C73,-143.3211 73,-175 73,-175 73,-175 380.7598,-175 380.7598,-175"/>
<polygon fill="#000000" stroke="#000000" points="380.7598,-178.5001 390.7598,-175 380.7597,-171.5001 380.7598,-178.5001"/>
</g>
</g>
</svg>
